<svg xmlns="http://www.w3.org/2000/svg" width="89.794" height="94.019" viewBox="0 0 89.794 94.019"><defs><style>.a,.b{fill:#fff;}.a{opacity:0.341;}</style></defs><g transform="translate(0 -15.357)"><path class="a" d="M102.369,50.349,61.028,121.955,19.686,50.349Z" transform="translate(-16.13 -16.135)"/><path class="b" d="M152.686,50.349l-27.115,71.606L98.456,50.349Z" transform="translate(-80.013 -34.992)"/><g transform="translate(0 30.657)"><path class="b" d="M44.9,109.377a3.554,3.554,0,0,1-3.079-1.778L.477,35.992a3.557,3.557,0,0,1,3.079-5.335H86.238a3.557,3.557,0,0,1,3.081,5.335L47.979,107.6A3.558,3.558,0,0,1,44.9,109.377ZM9.716,37.77,44.9,98.707,80.079,37.77Z" transform="translate(0 -30.657)"/></g></g></svg>