<svg xmlns="http://www.w3.org/2000/svg" xmlns:xlink="http://www.w3.org/1999/xlink" width="89.794" height="94.019" viewBox="0 0 89.794 94.019">
  <defs>
    <linearGradient id="linear-gradient" x1="0.573" y1="-0.382" x2="0.434" y2="1.496" gradientUnits="objectBoundingBox">
      <stop offset="0" stop-color="#ff0080"/>
      <stop offset="1" stop-color="#ff8c00"/>
    </linearGradient>
  </defs>
  <g id="triangulo" transform="translate(0 -15.357)">
    <path id="Path_76" data-name="Path 76" d="M102.369,50.349,61.028,121.955,19.686,50.349Z" transform="translate(-16.13 -16.135)" opacity="0.341" fill="url(#linear-gradient)"/>
    <path id="Path_77" data-name="Path 77" d="M152.686,50.349l-27.115,71.606L98.456,50.349Z" transform="translate(-80.013 -34.992)" fill="url(#linear-gradient)"/>
    <g id="Group_12" data-name="Group 12" transform="translate(0 30.657)">
      <path id="Path_78" data-name="Path 78" d="M44.9,109.377a3.554,3.554,0,0,1-3.079-1.778L.477,35.992a3.557,3.557,0,0,1,3.079-5.335H86.238a3.557,3.557,0,0,1,3.081,5.335L47.979,107.6A3.558,3.558,0,0,1,44.9,109.377ZM9.716,37.77,44.9,98.707,80.079,37.77Z" transform="translate(0 -30.657)" fill="url(#linear-gradient)"/>
    </g>
  </g>
</svg>
